<svg width="104" height="25" viewBox="0 0 104 25" fill="none" xmlns="http://www.w3.org/2000/svg">
<path fill-rule="evenodd" clip-rule="evenodd" d="M20.5926 5.36783V5.25539C20.5926 4.88855 20.3105 4.66182 19.8866 4.65813H13.0218C12.5978 4.65813 12.3452 4.88302 12.3452 5.2517V5.36414C12.3452 5.75203 12.5666 6.05129 12.8132 6.38467C13.1233 6.80386 13.4734 7.27701 13.4734 8.04813L13.4457 13.4143H7.0049V8.04813C7.0049 7.27073 7.4007 6.79793 7.75072 6.37981C8.02816 6.04838 8.27684 5.75131 8.27684 5.36414V5.2517C8.27684 4.88486 7.99481 4.65813 7.57083 4.65813H0.706024C0.283886 4.65813 0 4.88302 0 5.2517V5.36414C0 5.75203 0.227537 6.05129 0.481018 6.38467C0.799745 6.80386 1.15949 7.27701 1.15949 8.04813V21.3206C1.15949 22.0904 0.799957 22.5631 0.4813 22.982C0.227705 23.3154 0 23.6147 0 24.0027V24.117C0 24.4839 0.283886 24.7087 0.706024 24.7087H7.57083C7.99481 24.7087 8.27684 24.4857 8.27684 24.117V24.0027C8.27684 23.6147 8.02162 23.3154 7.73739 22.982C7.38023 22.5631 6.97725 22.0904 6.97725 21.3206L7.0049 15.8402H13.4457L13.4734 21.3243C13.4734 22.0941 13.1236 22.5668 12.8135 22.9857C12.5668 23.319 12.3452 23.6184 12.3452 24.0064V24.1207C12.3452 24.4875 12.5978 24.7124 13.0218 24.7124H19.8866C20.3105 24.7124 20.5926 24.4894 20.5926 24.1207V24.0064C20.5926 23.6184 20.3392 23.319 20.0569 22.9857C19.7023 22.5668 19.3022 22.0941 19.3022 21.3243V8.05182C19.3022 7.27442 19.7037 6.80162 20.0588 6.3835C20.3403 6.05207 20.5926 5.755 20.5926 5.36783ZM29.3303 25C33.4816 25 37.1831 22.1778 37.1831 17.9379H37.1739C37.1739 13.7 33.4429 10.8759 29.3192 10.8759C25.1955 10.8759 21.4387 13.7018 21.4387 17.9379C21.4387 22.1741 25.1789 25 29.3303 25ZM28.3699 12.3967C30.4603 12.3967 31.3064 19.0108 31.3064 20.5076H31.2972C31.2972 22.292 31.1276 23.4737 30.0086 23.4681C27.9459 23.4681 27.0979 17.2264 27.0979 15.418C27.0979 13.4696 27.2638 12.3967 28.3699 12.3967ZM62.7166 22.9894C62.3985 22.5705 62.0395 22.0978 62.0395 21.328L62.045 4.14566C62.045 3.32351 61.5915 3.15391 60.6883 3.4083L55.7111 4.88302C55.5198 4.92283 55.347 5.02459 55.2193 5.17255C55.0917 5.32051 55.0164 5.50641 55.0051 5.70149V5.77706C55.0051 6.16495 55.3155 6.42442 55.6612 6.71347C56.096 7.07692 56.5867 7.48716 56.5867 8.25828V11.4658C55.9084 11.0695 55.0622 10.8722 53.9875 10.8722C50.5146 10.8722 47.2942 13.6944 47.2942 17.9343C47.2942 22.6792 50.5994 24.9963 53.9875 24.9963C55.2595 24.9963 56.3895 24.6276 57.1803 23.9788C57.184 24.0815 57.2083 24.1823 57.2518 24.2755C57.2953 24.3686 57.357 24.452 57.4334 24.5208C57.5097 24.5896 57.5991 24.6423 57.6962 24.6759C57.7934 24.7094 57.8962 24.7231 57.9988 24.7161H62.4911C62.9151 24.7161 63.1971 24.4931 63.1971 24.1244V24.0101C63.1971 23.6221 62.9698 23.3227 62.7166 22.9894ZM54.4687 12.3727C55.5139 12.3727 56.5867 14.0115 56.5867 15.8199V21.6376C56.5867 22.7953 56.0503 23.5308 55.2595 23.5013C53.3386 23.3889 52.6603 17.1176 52.7746 15.3111C52.8594 13.3626 53.3626 12.3727 54.4687 12.3727ZM74.0437 25C79.5794 25 84.0699 21.0975 84.0699 14.83H84.0607C84.0607 8.5606 79.2881 4.37978 74.04 4.37793C73.5414 4.37795 73.0433 4.40935 72.5487 4.47195C71.9441 4.48116 71.6012 4.15488 71.8224 3.55025L72.8307 0.8423C72.8711 0.733522 72.8804 0.615649 72.8575 0.501895C72.8347 0.388141 72.7806 0.282994 72.7014 0.198225C72.6222 0.113456 72.5209 0.0524177 72.409 0.0219416C72.297 -0.00853446 72.1788 -0.00723857 72.0676 0.025677L67.0351 1.51698C66.9225 1.54924 66.8214 1.61248 66.743 1.69946C66.6646 1.78645 66.6123 1.89369 66.5919 2.00897C66.5716 2.12425 66.584 2.24294 66.6278 2.3515C66.6716 2.46007 66.745 2.55414 66.8397 2.62302L69.2121 4.38162C69.7301 4.78164 69.6029 5.24802 69.0628 5.55402C65.9493 7.21861 64.0728 10.5459 64.0728 14.83C64.0728 21.1012 68.9301 25 74.0437 25ZM69.8371 9.85466C69.909 7.65365 70.709 6.63609 72.2335 6.68955H72.2242C75.1589 6.79278 78.0531 15.3461 77.9185 19.6081C77.8429 21.7538 77.0447 22.7418 75.4631 22.6865C72.556 22.5852 69.6527 14.8798 69.8371 9.85466ZM43.7069 3.40278C44.6102 3.15023 45.0618 3.31983 45.0618 4.14014L45.0673 21.3224C45.0673 22.0923 45.4675 22.5649 45.8221 22.9838C46.1043 23.3172 46.3577 23.6165 46.3577 24.0046V24.1189C46.3577 24.4857 46.0757 24.7106 45.6517 24.7106H38.844C38.4201 24.7106 38.138 24.4875 38.138 24.1189V24.0046C38.138 23.6165 38.3654 23.3172 38.6186 22.9838C38.9367 22.5649 39.2957 22.0923 39.2957 21.3224V8.3486C39.2957 7.58375 38.8058 7.17302 38.371 6.80844C38.0241 6.51753 37.7122 6.25601 37.7122 5.8674V5.7826C37.7239 5.58737 37.7996 5.40142 37.9275 5.25349C38.0555 5.10556 38.2285 5.00387 38.4201 4.96413L43.7069 3.40278ZM95.3976 10.8482C97.77 10.8482 100.425 12.0907 100.793 16.6384L101.177 21.328C101.237 22.0739 101.528 22.5408 101.783 22.9501C102.001 23.2995 102.192 23.6069 102.192 24.0101V24.1244C102.192 24.4912 101.91 24.7161 101.486 24.7161H95.2446C94.8206 24.7161 94.5386 24.4931 94.5386 24.1244V24.0101C94.5386 23.6309 94.7449 23.3364 94.9722 23.0121C95.2698 22.5875 95.6031 22.1118 95.5561 21.328L95.2722 16.4411C95.1321 13.8143 94.8243 12.9092 93.7182 12.9092C92.7044 12.9092 92.3357 13.864 92.3357 15.3388V21.3187C92.3357 22.0886 92.7358 22.5612 93.0904 22.9801C93.3727 23.3135 93.6261 23.6129 93.6261 24.0009V24.1152C93.6261 24.482 93.3422 24.7069 92.9182 24.7069H86.1124C85.6884 24.7069 85.4064 24.4839 85.4064 24.1152V24.0009C85.4064 23.6129 85.6598 23.3135 85.942 22.9801C86.2966 22.5612 86.6967 22.0886 86.6967 21.3187V15.6042C86.6967 14.8356 86.2066 14.4234 85.772 14.058C85.426 13.767 85.1151 13.5056 85.1151 13.1175V13.0327C85.1267 12.8377 85.2021 12.6519 85.3297 12.504C85.4573 12.3561 85.63 12.2543 85.8211 12.2142L90.0868 10.957C90.99 10.7063 91.4435 10.8759 91.4435 11.6944V12.8539C92.1772 11.5543 93.5542 10.8482 95.3976 10.8482ZM101.722 11.8345H101.757C101.765 11.8367 101.772 11.837 101.78 11.8352C101.787 11.8334 101.794 11.8297 101.799 11.8245C101.805 11.8192 101.809 11.8125 101.811 11.8052C101.813 11.7979 101.813 11.7902 101.811 11.7828L101.778 11.4695C101.774 11.4271 101.755 11.4123 101.717 11.4123H100.754C100.712 11.4123 100.69 11.4271 100.69 11.4695L100.657 11.7828C100.656 11.7896 100.656 11.7965 100.658 11.803C100.66 11.8095 100.663 11.8155 100.668 11.8205C100.673 11.8255 100.678 11.8294 100.685 11.8318C100.689 11.8336 100.694 11.8345 100.699 11.8347C100.701 11.8347 100.703 11.8346 100.705 11.8345H100.731C100.77 11.8345 100.796 11.7889 100.824 11.7391C100.859 11.6792 100.896 11.6133 100.965 11.6133H101.02V12.4207C101.02 12.4667 100.997 12.4951 100.976 12.5204C100.959 12.5408 100.944 12.5591 100.944 12.5829C100.944 12.5882 100.945 12.5935 100.948 12.5984C100.95 12.6033 100.953 12.6076 100.957 12.6111C100.961 12.6146 100.966 12.6172 100.971 12.6187C100.976 12.6202 100.981 12.6206 100.987 12.6198H101.466C101.471 12.6203 101.477 12.6197 101.482 12.6181C101.487 12.6165 101.491 12.6139 101.495 12.6104C101.499 12.607 101.502 12.6028 101.505 12.598C101.506 12.5957 101.507 12.5932 101.507 12.5907C101.508 12.5881 101.508 12.5855 101.508 12.5829C101.508 12.5591 101.493 12.5408 101.475 12.5204C101.454 12.4951 101.429 12.4667 101.429 12.4207V11.6133H101.488C101.557 11.6133 101.594 11.6792 101.628 11.7391C101.657 11.7889 101.683 11.8345 101.722 11.8345ZM103.555 12.5976C103.557 12.593 103.558 12.588 103.558 12.5829C103.558 12.5545 103.546 12.5354 103.533 12.514C103.518 12.4896 103.5 12.4623 103.497 12.4151L103.346 11.6114C103.338 11.5619 103.364 11.5325 103.387 11.5063C103.403 11.4877 103.418 11.4707 103.418 11.4492V11.44C103.418 11.4179 103.398 11.4068 103.372 11.4068H102.965C102.943 11.4048 102.921 11.4105 102.903 11.423C102.885 11.4355 102.873 11.4539 102.867 11.475L102.727 11.9193L102.572 11.4713C102.566 11.4507 102.553 11.4329 102.535 11.4211C102.517 11.4093 102.496 11.4042 102.474 11.4068H102.089C102.063 11.4068 102.047 11.4179 102.047 11.44V11.4492C102.047 11.4709 102.061 11.488 102.076 11.5069C102.097 11.5329 102.121 11.5622 102.115 11.6114L101.995 12.4151C101.988 12.4585 101.969 12.4863 101.952 12.5106C101.937 12.5327 101.923 12.5519 101.923 12.5773C101.923 12.5995 101.942 12.6142 101.967 12.6142H102.32C102.322 12.6145 102.325 12.6145 102.328 12.6141C102.33 12.6138 102.332 12.6133 102.335 12.6125C102.34 12.6109 102.344 12.6083 102.348 12.6048C102.351 12.6025 102.353 12.5998 102.355 12.5969C102.355 12.5955 102.356 12.5939 102.357 12.5924C102.358 12.59 102.359 12.5875 102.359 12.5849C102.36 12.5824 102.36 12.5799 102.36 12.5773C102.36 12.5546 102.347 12.5369 102.333 12.5177C102.314 12.4917 102.293 12.4628 102.299 12.4151L102.364 11.969L102.596 12.5718C102.602 12.5872 102.612 12.6004 102.626 12.6096C102.639 12.6189 102.655 12.6237 102.672 12.6234C102.687 12.6246 102.703 12.6201 102.716 12.6105C102.728 12.601 102.737 12.5873 102.74 12.5718L102.978 11.8953L103.068 12.4207C103.076 12.4664 103.055 12.4956 103.036 12.5224C103.022 12.542 103.009 12.5603 103.009 12.5829C103.009 12.5881 103.01 12.5932 103.012 12.5979C103.014 12.6026 103.017 12.6069 103.021 12.6103C103.023 12.6122 103.025 12.6138 103.028 12.6152C103.03 12.6163 103.032 12.6173 103.034 12.6181C103.039 12.6197 103.044 12.6203 103.05 12.6198H103.518C103.521 12.6199 103.524 12.6197 103.526 12.6192C103.529 12.6188 103.531 12.6182 103.533 12.6175C103.537 12.6158 103.542 12.6132 103.546 12.6097C103.549 12.6063 103.552 12.6022 103.555 12.5976Z" fill="#065142"/>
</svg>
